<svg width="40" height="40" viewBox="0 0 40 40" fill="none" xmlns="http://www.w3.org/2000/svg">
<circle cx="20" cy="20" r="20" fill="#D9D9D9"/>
<path fill-rule="evenodd" clip-rule="evenodd" d="M22.0005 17C22.0005 17.55 21.5505 18 21.0005 18C20.4505 18 20.0005 17.55 20.0005 17V15H18.0005C17.4505 15 17.0005 14.55 17.0005 14C17.0005 13.45 17.4505 13 18.0005 13H20.0005V11C20.0005 10.45 20.4505 10 21.0005 10C21.5505 10 22.0005 10.45 22.0005 11V13H24.0005C24.5505 13 25.0005 13.45 25.0005 14C25.0005 14.55 24.5505 15 24.0005 15H22.0005V17ZM14.0105 29C14.0105 27.9 14.9005 27 16.0005 27C17.1005 27 18.0005 27.9 18.0005 29C18.0005 30.1 17.1005 31 16.0005 31C14.9005 31 14.0105 30.1 14.0105 29ZM26.0005 27C24.9005 27 24.0105 27.9 24.0105 29C24.0105 30.1 24.9005 31 26.0005 31C27.1005 31 28.0005 30.1 28.0005 29C28.0005 27.9 27.1005 27 26.0005 27ZM24.5505 22H17.1005L16.0005 24H27.0005C27.5505 24 28.0005 24.45 28.0005 25C28.0005 25.55 27.5505 26 27.0005 26H16.0005C14.4805 26 13.5205 24.37 14.2505 23.03L15.6005 20.59L12.0005 13H11.0005C10.4505 13 10.0005 12.55 10.0005 12C10.0005 11.45 10.4505 11 11.0005 11H12.6405C13.0205 11 13.3805 11.22 13.5405 11.57L17.5305 20H24.5505L27.9405 13.87C28.2005 13.39 28.8105 13.22 29.2905 13.48C29.7705 13.75 29.9505 14.36 29.6805 14.84L26.3005 20.97C25.9605 21.59 25.3005 22 24.5505 22Z" fill="#6D7D8B"/>
</svg>
